<?xml version="1.0" encoding="UTF-8"?>
<svg id="Layer_1" data-name="Layer 1" xmlns="http://www.w3.org/2000/svg" viewBox="0 0 200.17 91.99">
  <defs>
    <style>
      .cls-1 {
        fill: #1d1e1f;
      }

      .cls-2 {
        fill: #e6007e;
      }
    </style>
  </defs>
  <g>
    <path class="cls-2" d="M16.04,57.51l5.26,15.48h.06l4.98-15.48h6.97v22.5h-4.63v-15.95h-.06l-5.52,15.95h-3.81l-5.52-15.79h-.06v15.79h-4.63v-22.5h6.97Z"/>
    <path class="cls-2" d="M48.89,57.51l8.42,22.5h-5.14l-1.7-5.01h-8.42l-1.77,5.01h-4.98l8.51-22.5h5.08ZM49.17,71.32l-2.84-8.26h-.06l-2.93,8.26h5.83Z"/>
    <path class="cls-2" d="M71.39,57.51c1.01,0,1.92.16,2.73.49.81.33,1.5.77,2.08,1.34s1.02,1.22,1.32,1.97c.3.75.46,1.55.46,2.41,0,1.32-.28,2.47-.84,3.44-.56.97-1.47,1.7-2.73,2.21v.06c.61.17,1.11.43,1.51.77.4.35.72.76.98,1.23s.44.99.55,1.56c.12.57.19,1.13.24,1.7.02.36.04.78.06,1.26.02.48.06.98.11,1.48.05.5.14.98.25,1.43.12.45.29.83.52,1.15h-4.95c-.27-.71-.44-1.56-.5-2.55-.06-.99-.16-1.93-.28-2.84-.17-1.18-.53-2.04-1.07-2.58-.55-.55-1.44-.82-2.68-.82h-4.95v8.79h-4.95v-22.5h12.14ZM69.63,67.69c1.13,0,1.99-.25,2.55-.76.57-.5.85-1.32.85-2.46s-.28-1.89-.85-2.38c-.57-.49-1.42-.74-2.55-.74h-5.42v6.34h5.42Z"/>
    <path class="cls-2" d="M86.96,57.51v9.33l8.79-9.33h6.18l-8.79,8.89,9.65,13.62h-6.21l-6.78-10.12-2.84,2.87v7.25h-4.95v-22.5h4.95Z"/>
    <path class="cls-2" d="M121.6,57.51v4.16h-11.88v4.82h10.9v3.85h-10.9v5.52h12.13v4.16h-17.08v-22.5h16.83Z"/>
    <path class="cls-2" d="M123.43,61.67v-4.16h18.44v4.16h-6.75v18.34h-4.95v-18.34h-6.75Z"/>
    <path class="cls-2" d="M149.4,57.51v22.5h-4.95v-22.5h4.95Z"/>
    <path class="cls-2" d="M158.67,57.51l9.39,15.1h.06v-15.1h4.63v22.5h-4.95l-9.36-15.07h-.06v15.07h-4.63v-22.5h4.92Z"/>
    <path class="cls-2" d="M190.44,79.85c-1.07.45-2.15.68-3.25.68-1.72,0-3.27-.3-4.65-.9s-2.54-1.42-3.48-2.47-1.67-2.29-2.18-3.7c-.5-1.42-.76-2.95-.76-4.59s.25-3.24.76-4.68c.51-1.44,1.23-2.7,2.18-3.77s2.11-1.91,3.48-2.52,2.93-.91,4.65-.91c1.15,0,2.27.17,3.36.52s2.06.86,2.93,1.53c.87.67,1.59,1.5,2.16,2.49.57.99.91,2.12,1.04,3.4h-4.73c-.29-1.26-.86-2.21-1.7-2.84-.84-.63-1.86-.95-3.06-.95-1.12,0-2.06.22-2.84.65s-1.41,1.01-1.89,1.73c-.48.73-.84,1.55-1.06,2.47s-.33,1.88-.33,2.87.11,1.87.33,2.76c.22.89.57,1.7,1.06,2.41.48.71,1.11,1.29,1.89,1.72s1.72.65,2.84.65c1.64,0,2.9-.41,3.8-1.25.89-.83,1.41-2.03,1.56-3.61h-4.98v-3.69h9.46v12.17h-3.15l-.5-2.55c-.88,1.13-1.86,1.93-2.93,2.38Z"/>
  </g>
  <path class="cls-1" d="M41.52,15.24l-5.81,3.63,1.41,2.26,3.06-1.91c.51,1.02.66,1.96.43,2.81-.23.85-.85,1.59-1.85,2.22-.68.43-1.35.66-1.99.69-.64.03-1.25-.08-1.82-.33-.57-.25-1.1-.61-1.57-1.08-.48-.46-.9-.99-1.26-1.57-.38-.61-.68-1.24-.9-1.89-.22-.65-.32-1.29-.3-1.92.02-.63.18-1.23.5-1.79.31-.56.81-1.06,1.49-1.49.74-.46,1.48-.66,2.24-.59.76.06,1.47.43,2.13,1.09l2.9-1.81c-.57-.74-1.22-1.3-1.94-1.69-.73-.39-1.49-.62-2.28-.7-.79-.08-1.59-.02-2.39.19-.8.2-1.55.53-2.26.97-1.06.66-1.89,1.44-2.5,2.34-.61.9-1,1.86-1.17,2.88-.01.09-.03.17-.04.26l-2.3-6.15h-3.67l-.07.18v-.18h-13.35v3.01h4.88v13.28h5.98l1.28-3.63h6.09l1.23,3.63h3.72l-.84-2.24c.24.24.48.46.74.66.85.68,1.77,1.16,2.76,1.44.98.28,2.01.34,3.09.18,1.07-.16,2.14-.57,3.2-1.23.67-.42,1.25-.97,1.73-1.66.48-.69.78-1.55.89-2.59l1.29,1.37,1.94-1.21-4.67-7.47ZM16.67,24.78v-10.08h3.81l-3.81,10.08ZM21.28,21.68l2.12-5.98h.05l2.05,5.98h-4.22Z"/>
  <g>
    <path class="cls-2" d="M15.92,35.03c.94,0,1.82.15,2.63.45.81.3,1.52.75,2.11,1.35s1.06,1.35,1.39,2.25c.33.9.5,1.96.5,3.17,0,1.06-.14,2.05-.41,2.95-.27.9-.69,1.68-1.24,2.33s-1.24,1.17-2.07,1.55c-.83.38-1.8.56-2.92.56h-6.31v-14.62h6.31ZM15.7,46.95c.46,0,.92-.07,1.35-.22s.83-.4,1.17-.75c.34-.35.61-.8.82-1.36s.31-1.24.31-2.05c0-.74-.07-1.4-.21-2-.14-.59-.38-1.1-.71-1.53-.33-.42-.76-.75-1.3-.97-.54-.23-1.21-.34-2-.34h-2.29v9.21h2.87Z"/>
    <path class="cls-2" d="M28,35.03v14.62h-3.21v-14.62h3.21Z"/>
    <path class="cls-2" d="M39.49,49.54c-.7.29-1.4.44-2.11.44-1.12,0-2.13-.19-3.02-.58-.89-.39-1.65-.92-2.26-1.61s-1.08-1.48-1.41-2.41c-.33-.92-.49-1.91-.49-2.98s.16-2.11.49-3.04c.33-.94.8-1.75,1.41-2.45s1.37-1.24,2.26-1.64c.89-.4,1.9-.59,3.02-.59.75,0,1.48.11,2.18.34.7.23,1.34.56,1.9.99.57.44,1.03.98,1.4,1.62.37.64.59,1.38.68,2.21h-3.07c-.19-.82-.56-1.43-1.11-1.84-.55-.41-1.21-.61-1.99-.61-.72,0-1.34.14-1.84.42-.5.28-.91.66-1.23,1.13-.31.47-.54,1.01-.69,1.61-.14.6-.21,1.22-.21,1.86s.07,1.21.21,1.79c.14.58.37,1.1.69,1.57.31.46.72.84,1.23,1.12.5.28,1.12.42,1.84.42,1.06,0,1.89-.27,2.47-.81s.92-1.32,1.01-2.34h-3.24v-2.4h6.14v7.9h-2.05l-.33-1.66c-.57.74-1.21,1.25-1.9,1.55Z"/>
    <path class="cls-2" d="M49.58,35.03v14.62h-3.21v-14.62h3.21Z"/>
    <path class="cls-2" d="M51.26,37.73v-2.7h11.98v2.7h-4.38v11.92h-3.21v-11.92h-4.38Z"/>
    <path class="cls-2" d="M70.33,35.03l5.47,14.62h-3.34l-1.11-3.26h-5.47l-1.15,3.26h-3.24l5.53-14.62h3.3ZM70.51,44l-1.84-5.37h-.04l-1.9,5.37h3.79Z"/>
    <path class="cls-2" d="M80.28,35.03v11.92h7.13v2.7h-10.34v-14.62h3.21Z"/>
  </g>
  <path class="cls-2" d="M180.01,11.63H51.1v3h128.91c5.66,0,10.26,6.43,10.26,14.34v21.5h3v-21.5c0-9.56-5.95-17.34-13.26-17.34Z"/>
</svg>