<svg xmlns="http://www.w3.org/2000/svg" width="200" height="95" viewBox="0 0 200 95" fill="none"><g clip-path="url(#clip0_7473_31295)"><path d="M48.0294 48.0486L47.8806 61.4333C47.8565 63.5368 46.8872 64.7674 44.8723 65.3184L40.1747 66.6054C37.7777 67.2489 36.4505 66.0866 36.4786 63.6976L36.6395 49.1666C36.7521 39.1281 30.8802 33.9962 24.0913 33.9238C23.7856 33.9238 23.48 33.9238 23.1743 33.9439C19.6029 34.145 16.0154 35.798 13.9522 38.7983C11.7321 42.0318 11.6235 46.657 14.2096 49.7216C19.1002 55.5212 25.8931 50.6949 31.7288 49.8624C33.4421 49.6171 34.0293 51.1655 34.0132 52.6214C34.0132 52.6295 33.9529 58.1676 33.9529 58.1676C33.9328 59.9854 33.2491 61.3167 31.6162 61.9682C29.0221 63.1828 26.1304 63.6051 23.3714 63.8867C12.6169 64.9766 1.6292 58.4048 0.832871 44.9517C0.0244767 31.3055 11.3219 21.641 24.4171 21.7858C38.0874 21.9346 48.1984 32.854 48.0294 48.0526V48.0486Z" fill="#12433F"></path><path d="M52.3398 62.0487V4.01318C52.3398 1.90975 53.5826 0.666992 55.686 0.666992H60.9426C63.046 0.666992 64.2888 1.90975 64.2888 4.01318V62.0446C64.2888 64.1481 63.046 65.3908 60.9426 65.3908H55.686C53.5826 65.3908 52.3398 64.1481 52.3398 62.0446V62.0487Z" fill="#12433F"></path><path d="M72.3296 0.666992H77.5862C79.6896 0.666992 80.9324 1.90975 80.9324 4.01318V42.064C80.9324 50.3812 86.1889 54.9702 92.7888 54.9702C99.3887 54.9702 104.549 49.9026 104.549 43.0212C104.549 36.1398 99.1956 30.5937 91.5461 30.5937H89.3461C87.3392 30.5937 86.0964 29.3509 86.7641 26.9619L88.1999 21.7979C88.775 19.8875 89.7282 19.2158 91.5461 19.2158H92.9819C101.971 19.2158 116.691 26.0047 116.691 43.0212C116.691 56.9811 106.27 66.5411 92.6923 66.5411C79.1145 66.5411 68.9834 57.0776 68.9834 42.5426V4.01318C68.9834 1.90975 70.2262 0.666992 72.3296 0.666992Z" fill="#12433F"></path><path d="M119.913 7.55224C119.913 3.72745 122.974 0.859863 126.891 0.859863C130.808 0.859863 133.965 3.72745 133.965 7.55224C133.965 11.5661 131.001 14.4377 126.891 14.4377C122.781 14.4377 119.913 11.5701 119.913 7.55224ZM120.967 62.0485V22.5618C120.967 20.4584 122.21 19.2156 124.313 19.2156H129.57C131.673 19.2156 132.916 20.4584 132.916 22.5618V62.0485C132.916 64.1519 131.673 65.3947 129.57 65.3947H124.313C122.21 65.3947 120.967 64.1519 120.967 62.0485Z" fill="#12433F"></path><path d="M136.172 41.4929C136.172 28.3937 145.957 17.2049 159.595 18.1661C173.041 19.1112 179.492 30.1713 178.281 40.9137C177.971 43.6687 177.517 46.5564 176.274 49.1344C175.606 50.7593 174.267 51.4269 172.449 51.4269H166.903C165.447 51.4269 163.907 50.8236 164.168 49.1103C165.065 43.2826 169.968 36.542 164.221 31.5911C161.18 28.9728 156.555 29.0291 153.297 31.213C150.277 33.24 148.584 36.8114 148.342 40.3829C148.322 40.6885 148.31 40.9942 148.31 41.2998C148.31 48.0887 153.378 54.017 163.416 54.017H177.947C180.336 54.017 181.482 55.3563 180.815 57.7452L179.476 62.4307C178.9 64.4376 177.658 65.3948 175.554 65.3948H162.169C146.967 65.3948 136.164 55.1632 136.164 41.4929H136.172Z" fill="#12433F"></path><path d="M185.73 59.6556C185.73 55.7343 188.791 52.8667 192.805 52.8667C196.819 52.8667 199.879 55.7343 199.879 59.6556C199.879 63.5769 196.819 66.541 192.805 66.541C188.791 66.541 185.73 63.6734 185.73 59.6556Z" fill="#2F6B6D"></path><path d="M119.195 7.62468C119.195 3.29716 122.574 0.12793 127.01 0.12793C131.446 0.12793 134.824 3.29716 134.824 7.62468C134.824 11.9522 131.446 15.226 127.01 15.226C122.574 15.226 119.195 12.0568 119.195 7.62468Z" fill="#F2EA5F"></path><path d="M60.3612 92.576C59.9345 92.576 59.5325 92.4735 59.1551 92.2683C58.7777 92.0632 58.4946 91.7925 58.3059 91.4561V92.4776H57.3213V83.7271H58.3059V87.2839C58.4946 86.9475 58.7736 86.6808 59.1428 86.4839C59.5202 86.2788 59.9263 86.1762 60.3612 86.1762C61.2966 86.1762 62.0268 86.4757 62.5519 87.0746C63.0852 87.6736 63.3519 88.4408 63.3519 89.3761C63.3519 90.3115 63.0852 91.0786 62.5519 91.6776C62.0268 92.2766 61.2966 92.576 60.3612 92.576ZM58.7736 91.0622C59.151 91.4807 59.6515 91.6899 60.2751 91.6899C60.8986 91.6899 61.3991 91.4807 61.7765 91.0622C62.154 90.6438 62.3427 90.0817 62.3427 89.3761C62.3427 88.6705 62.154 88.1085 61.7765 87.69C61.3991 87.2716 60.8986 87.0623 60.2751 87.0623C59.6515 87.0623 59.151 87.2757 58.7736 87.7023C58.4043 88.1208 58.2197 88.6787 58.2197 89.3761C58.2197 90.0735 58.4043 90.6356 58.7736 91.0622Z" fill="#12433F"></path><path d="M69.334 86.2747L67.3648 91.6284L66.2326 94.9883H65.2849L66.0726 92.576L63.7588 86.2747H64.7803L66.5402 91.1976L68.3002 86.2747H69.334Z" fill="#12433F"></path><path d="M75.3253 92.4775V84.81H72.5684V83.8623H79.1283V84.81H76.3837V92.4775H75.3253Z" fill="#12433F"></path><path d="M84.8995 92.4775L84.0134 90.1514H80.1735L79.2751 92.4775H78.1797L81.6135 83.8623H82.5611L85.9949 92.4775H84.8995ZM80.5304 89.216H83.6442L82.0935 85.1546L80.5304 89.216Z" fill="#12433F"></path><path d="M90.4498 92.5759C89.3093 92.5759 88.3329 92.1903 87.5206 91.419C86.7165 90.6478 86.3145 89.5647 86.3145 88.1699C86.3145 86.7751 86.7206 85.692 87.5329 84.9208C88.3452 84.1495 89.3257 83.7639 90.4744 83.7639C91.459 83.7639 92.2959 84.0305 92.9851 84.5639C93.6825 85.089 94.0804 85.7618 94.1789 86.5823H93.0712C92.9728 86.0325 92.6774 85.5854 92.1851 85.2408C91.701 84.8879 91.1267 84.7115 90.4621 84.7115C89.5513 84.7115 88.8088 85.0151 88.2344 85.6223C87.6683 86.2294 87.3852 87.0786 87.3852 88.1699C87.3852 89.2612 87.6683 90.1145 88.2344 90.7298C88.8088 91.3452 89.5513 91.6529 90.4621 91.6529C91.1923 91.6529 91.82 91.4642 92.3451 91.0867C92.8702 90.7093 93.1328 90.217 93.1328 89.6099C93.1328 89.4129 93.0712 89.257 92.9481 89.1422C92.8251 89.0191 92.661 88.9576 92.4558 88.9576H90.5113V88.0468H92.6405C93.0015 88.0468 93.3461 88.1822 93.6743 88.453C94.0025 88.7155 94.1666 89.0724 94.1666 89.5237V92.4775H93.1943V90.976C92.9892 91.4519 92.6364 91.8375 92.1359 92.1329C91.6436 92.4282 91.0815 92.5759 90.4498 92.5759Z" fill="#12433F"></path><path d="M101.425 92.5759C100.465 92.5759 99.6939 92.3134 99.1113 91.7883C98.5288 91.2549 98.2088 90.5452 98.1514 89.6591H99.1852C99.2426 90.2663 99.4642 90.7462 99.8498 91.099C100.244 91.4519 100.769 91.6283 101.425 91.6283C102.049 91.6283 102.545 91.5052 102.914 91.259C103.292 91.0047 103.48 90.6273 103.48 90.1268C103.48 89.7822 103.353 89.495 103.099 89.2653C102.853 89.0355 102.545 88.8714 102.176 88.773C101.807 88.6663 101.401 88.5473 100.957 88.416C100.523 88.2766 100.121 88.133 99.7513 87.9853C99.3821 87.8376 99.0703 87.5997 98.816 87.2715C98.5698 86.9433 98.4467 86.5371 98.4467 86.053C98.4467 85.372 98.7175 84.8223 99.259 84.4039C99.8006 83.9772 100.502 83.7639 101.364 83.7639C102.225 83.7639 102.931 83.9977 103.48 84.4654C104.038 84.9249 104.346 85.5402 104.403 86.3115H103.37C103.32 85.8192 103.115 85.4295 102.754 85.1423C102.402 84.8551 101.938 84.7115 101.364 84.7115C100.781 84.7115 100.326 84.8305 99.9975 85.0685C99.6693 85.3064 99.5052 85.6346 99.5052 86.053C99.5052 86.3484 99.5954 86.5987 99.7759 86.8038C99.9647 87.0007 100.207 87.1566 100.502 87.2715C100.806 87.3781 101.138 87.4766 101.499 87.5668C101.86 87.6489 102.221 87.7473 102.582 87.8622C102.943 87.9771 103.271 88.1207 103.567 88.293C103.87 88.4571 104.112 88.695 104.293 89.0068C104.481 89.3186 104.576 89.6919 104.576 90.1268C104.576 90.8898 104.28 91.4888 103.69 91.9236C103.107 92.3585 102.352 92.5759 101.425 92.5759Z" fill="#12433F"></path><path d="M110.899 91.6777C110.308 92.2767 109.553 92.5761 108.634 92.5761C107.715 92.5761 106.96 92.2767 106.37 91.6777C105.779 91.0705 105.483 90.3034 105.483 89.3762C105.483 88.4409 105.779 87.6737 106.37 87.0747C106.96 86.4758 107.715 86.1763 108.634 86.1763C109.561 86.1763 110.32 86.4758 110.911 87.0747C111.502 87.6737 111.797 88.4409 111.797 89.3762C111.797 90.3034 111.498 91.0705 110.899 91.6777ZM108.634 91.69C109.274 91.69 109.791 91.4767 110.185 91.05C110.587 90.6152 110.788 90.0572 110.788 89.3762C110.788 88.6952 110.587 88.1414 110.185 87.7147C109.791 87.2799 109.274 87.0624 108.634 87.0624C108.002 87.0624 107.485 87.2799 107.083 87.7147C106.69 88.1414 106.493 88.6952 106.493 89.3762C106.493 90.0572 106.69 90.6152 107.083 91.05C107.485 91.4767 108.002 91.69 108.634 91.69Z" fill="#12433F"></path><path d="M113.572 92.4776V87.1485H112.28V86.2747H113.572V85.647C113.572 85.0562 113.745 84.5886 114.089 84.244C114.442 83.8994 114.914 83.7271 115.505 83.7271H116.489V84.6009H115.554C115.25 84.6009 115.008 84.6952 114.828 84.8839C114.647 85.0727 114.557 85.3311 114.557 85.6593V86.2747H116.489V87.1485H114.557V92.4776H113.572Z" fill="#12433F"></path><path d="M118.236 84.2932H119.22V86.2747H121.128V87.1485H119.22V90.5084C119.22 90.853 119.311 91.1238 119.491 91.3207C119.672 91.5094 119.914 91.6037 120.217 91.6037H121.128V92.4776H120.18C119.59 92.4776 119.118 92.3053 118.765 91.9607C118.412 91.6079 118.236 91.132 118.236 90.533V87.1485H116.943V86.2747H118.236V84.2932Z" fill="#12433F"></path><path d="M123.49 92.4776L121.607 86.2747H122.592L123.958 91.1976L125.484 86.2747H126.444L127.946 91.1976L129.312 86.2747H130.309L128.426 92.4776H127.478L125.952 87.5423L124.438 92.4776H123.49Z" fill="#12433F"></path><path d="M133.504 86.1763C134.308 86.1763 134.944 86.3855 135.412 86.804C135.888 87.2224 136.125 87.7804 136.125 88.4778V92.4777H135.141V91.4069C134.977 91.7597 134.702 92.0428 134.316 92.2561C133.939 92.4695 133.508 92.5761 133.024 92.5761C132.376 92.5761 131.855 92.4079 131.461 92.0715C131.067 91.7269 130.87 91.2716 130.87 90.7054C130.87 90.1147 131.092 89.647 131.535 89.3024C131.986 88.9496 132.589 88.7732 133.344 88.7732H134.747C135.01 88.7732 135.141 88.6624 135.141 88.4409C135.141 88.006 134.993 87.6614 134.698 87.407C134.402 87.1445 133.996 87.0132 133.479 87.0132C133.028 87.0132 132.642 87.1363 132.323 87.3824C132.003 87.6204 131.83 87.9116 131.806 88.2563H130.87C130.928 87.6573 131.207 87.1609 131.707 86.7671C132.208 86.3732 132.807 86.1763 133.504 86.1763ZM133.172 91.7392C133.795 91.7392 134.279 91.5587 134.624 91.1977C134.969 90.8285 135.141 90.3239 135.141 89.6839V89.5239H133.406C132.938 89.5239 132.565 89.6306 132.286 89.8439C132.015 90.049 131.879 90.3321 131.879 90.6931C131.879 91.0131 131.994 91.2674 132.224 91.4562C132.462 91.6449 132.778 91.7392 133.172 91.7392Z" fill="#12433F"></path><path d="M141.041 87.1485H140.179C139.104 87.1485 138.567 88.0141 138.567 89.7453V92.4776H137.582V86.2747H138.567V87.53C138.821 86.6931 139.383 86.2747 140.253 86.2747H141.041V87.1485Z" fill="#12433F"></path><path d="M146.355 90.4839H147.351C147.245 91.1239 146.933 91.6326 146.416 92.01C145.907 92.3874 145.272 92.5761 144.509 92.5761C143.606 92.5761 142.868 92.2643 142.293 91.6408C141.727 91.009 141.444 90.2418 141.444 89.3393C141.444 88.4121 141.711 87.6532 142.244 87.0624C142.785 86.4717 143.503 86.1763 144.398 86.1763C145.284 86.1763 145.985 86.4512 146.502 87.0009C147.027 87.5424 147.29 88.2357 147.29 89.0808C147.29 89.2531 147.282 89.3967 147.265 89.5116H142.416C142.457 90.1516 142.671 90.6767 143.056 91.0869C143.442 91.4972 143.926 91.7023 144.509 91.7023C145.534 91.7023 146.149 91.2962 146.355 90.4839ZM144.398 87.0132C143.873 87.0132 143.442 87.1609 143.105 87.4563C142.769 87.7517 142.556 88.1742 142.465 88.7239H146.281C146.24 88.1988 146.051 87.7845 145.715 87.4809C145.386 87.1691 144.947 87.0132 144.398 87.0132Z" fill="#12433F"></path></g><defs><clipPath id="clip0_7473_31295"><rect width="200" height="95" fill="white"></rect></clipPath></defs></svg>
